# xmcd CD database file
#
# Track frame offsets:
#	150
#	9992
#	27503
#	42819
#	59378
#	76175
#	98628
#	109692
#	125814
#	138485
#	150594
#	166988
#	179382
#	197522
#
# Disc length: 2797 seconds
#
# Revision: 0
# Processed by: cddbd v1.5.2PL0 Copyright (c) Steve Scherf et al.
# Submitted via: CDex 1.70beta2
#
DISCID=ad0aeb0e
DTITLE=Henry Smith Junior - Crazy Moon
DYEAR=2003
DGENRE=Country
TTITLE0=Lets Make History
TTITLE1=There Goes
TTITLE2=Live It Up
TTITLE3=Crazy Moon
TTITLE4=Say You Love Me
TTITLE5=Hey God
TTITLE6=Take Me Dancing
TTITLE7=Wxcuses and Lies
TTITLE8=You Win Again
TTITLE9=I'll Be Your Fool
TTITLE10=I Told You So
TTITLE11=Okie From Muskogee
TTITLE12=Wedding Bells
TTITLE13=Steppin all Over my Heart
EXTD=YEAR: 2003
EXTT0=
EXTT1=
EXTT2=
EXTT3=
EXTT4=
EXTT5=
EXTT6=
EXTT7=
EXTT8=
EXTT9=
EXTT10=
EXTT11=
EXTT12=
EXTT13=
PLAYORDER=
